<svg width="360" height="76" viewBox="0 0 360 76" fill="none" xmlns="http://www.w3.org/2000/svg">
<g clip-path="url(#clip0_150801_199)">
<path d="M36.7338 3H53.9765L39.6321 73.3077H22.3894L36.7338 3Z" fill="white"/>
<path d="M62.0337 3H79.2764L68.1001 58.0875H50.8533L62.0337 3Z" fill="white"/>
<path d="M11.1804 3H28.4231L17.2468 58.0875H0L11.1804 3Z" fill="white"/>
<path d="M102.08 53.56H116.72V58H96.62V16.18H102.08V53.56ZM136.858 58.54C133.778 58.54 130.978 57.84 128.458 56.44C125.978 55.04 124.018 53.06 122.578 50.5C121.178 47.9 120.478 44.9 120.478 41.5C120.478 38.14 121.198 35.18 122.638 32.62C124.118 30.02 126.118 28.04 128.638 26.68C131.158 25.28 133.978 24.58 137.098 24.58C140.218 24.58 143.038 25.28 145.558 26.68C148.078 28.04 150.058 30 151.498 32.56C152.978 35.12 153.718 38.1 153.718 41.5C153.718 44.9 152.958 47.9 151.438 50.5C149.958 53.06 147.938 55.04 145.378 56.44C142.818 57.84 139.978 58.54 136.858 58.54ZM136.858 53.74C138.818 53.74 140.658 53.28 142.378 52.36C144.098 51.44 145.478 50.06 146.518 48.22C147.598 46.38 148.138 44.14 148.138 41.5C148.138 38.86 147.618 36.62 146.578 34.78C145.538 32.94 144.178 31.58 142.498 30.7C140.818 29.78 138.998 29.32 137.038 29.32C135.038 29.32 133.198 29.78 131.518 30.7C129.878 31.58 128.558 32.94 127.558 34.78C126.558 36.62 126.058 38.86 126.058 41.5C126.058 44.18 126.538 46.44 127.498 48.28C128.498 50.12 129.818 51.5 131.458 52.42C133.098 53.3 134.898 53.74 136.858 53.74ZM172.537 58.54C170.017 58.54 167.757 58.12 165.757 57.28C163.757 56.4 162.177 55.2 161.017 53.68C159.857 52.12 159.217 50.34 159.097 48.34H164.737C164.897 49.98 165.657 51.32 167.017 52.36C168.417 53.4 170.237 53.92 172.477 53.92C174.557 53.92 176.197 53.46 177.397 52.54C178.597 51.62 179.197 50.46 179.197 49.06C179.197 47.62 178.557 46.56 177.277 45.88C175.997 45.16 174.017 44.46 171.337 43.78C168.897 43.14 166.897 42.5 165.337 41.86C163.817 41.18 162.497 40.2 161.377 38.92C160.297 37.6 159.757 35.88 159.757 33.76C159.757 32.08 160.257 30.54 161.257 29.14C162.257 27.74 163.677 26.64 165.517 25.84C167.357 25 169.457 24.58 171.817 24.58C175.457 24.58 178.397 25.5 180.637 27.34C182.877 29.18 184.077 31.7 184.237 34.9H178.777C178.657 33.18 177.957 31.8 176.677 30.76C175.437 29.72 173.757 29.2 171.637 29.2C169.677 29.2 168.117 29.62 166.957 30.46C165.797 31.3 165.217 32.4 165.217 33.76C165.217 34.84 165.557 35.74 166.237 36.46C166.957 37.14 167.837 37.7 168.877 38.14C169.957 38.54 171.437 39 173.317 39.52C175.677 40.16 177.597 40.8 179.077 41.44C180.557 42.04 181.817 42.96 182.857 44.2C183.937 45.44 184.497 47.06 184.537 49.06C184.537 50.86 184.037 52.48 183.037 53.92C182.037 55.36 180.617 56.5 178.777 57.34C176.977 58.14 174.897 58.54 172.537 58.54ZM203.885 58.54C201.365 58.54 199.105 58.12 197.105 57.28C195.105 56.4 193.525 55.2 192.365 53.68C191.205 52.12 190.565 50.34 190.445 48.34H196.085C196.245 49.98 197.005 51.32 198.365 52.36C199.765 53.4 201.585 53.92 203.825 53.92C205.905 53.92 207.545 53.46 208.745 52.54C209.945 51.62 210.545 50.46 210.545 49.06C210.545 47.62 209.905 46.56 208.625 45.88C207.345 45.16 205.365 44.46 202.685 43.78C200.245 43.14 198.245 42.5 196.685 41.86C195.165 41.18 193.845 40.2 192.725 38.92C191.645 37.6 191.105 35.88 191.105 33.76C191.105 32.08 191.605 30.54 192.605 29.14C193.605 27.74 195.025 26.64 196.865 25.84C198.705 25 200.805 24.58 203.165 24.58C206.805 24.58 209.745 25.5 211.985 27.34C214.225 29.18 215.425 31.7 215.585 34.9H210.125C210.005 33.18 209.305 31.8 208.025 30.76C206.785 29.72 205.105 29.2 202.985 29.2C201.025 29.2 199.465 29.62 198.305 30.46C197.145 31.3 196.565 32.4 196.565 33.76C196.565 34.84 196.905 35.74 197.585 36.46C198.305 37.14 199.185 37.7 200.225 38.14C201.305 38.54 202.785 39 204.665 39.52C207.025 40.16 208.945 40.8 210.425 41.44C211.905 42.04 213.165 42.96 214.205 44.2C215.285 45.44 215.845 47.06 215.885 49.06C215.885 50.86 215.385 52.48 214.385 53.92C213.385 55.36 211.965 56.5 210.125 57.34C208.325 58.14 206.245 58.54 203.885 58.54ZM229.053 13.6V58H223.593V13.6H229.053ZM268.358 40.3C268.358 41.34 268.298 42.44 268.178 43.6H241.898C242.098 46.84 243.198 49.38 245.198 51.22C247.238 53.02 249.698 53.92 252.578 53.92C254.938 53.92 256.898 53.38 258.458 52.3C260.058 51.18 261.178 49.7 261.818 47.86H267.698C266.818 51.02 265.058 53.6 262.418 55.6C259.778 57.56 256.498 58.54 252.578 58.54C249.458 58.54 246.658 57.84 244.178 56.44C241.738 55.04 239.818 53.06 238.418 50.5C237.018 47.9 236.318 44.9 236.318 41.5C236.318 38.1 236.998 35.12 238.358 32.56C239.718 30 241.618 28.04 244.058 26.68C246.538 25.28 249.378 24.58 252.578 24.58C255.698 24.58 258.458 25.26 260.858 26.62C263.258 27.98 265.098 29.86 266.378 32.26C267.698 34.62 268.358 37.3 268.358 40.3ZM262.718 39.16C262.718 37.08 262.258 35.3 261.338 33.82C260.418 32.3 259.158 31.16 257.558 30.4C255.998 29.6 254.258 29.2 252.338 29.2C249.578 29.2 247.218 30.08 245.258 31.84C243.338 33.6 242.238 36.04 241.958 39.16H262.718ZM287.205 58.54C284.685 58.54 282.425 58.12 280.425 57.28C278.425 56.4 276.845 55.2 275.685 53.68C274.525 52.12 273.885 50.34 273.765 48.34H279.405C279.565 49.98 280.325 51.32 281.685 52.36C283.085 53.4 284.905 53.92 287.145 53.92C289.225 53.92 290.865 53.46 292.065 52.54C293.265 51.62 293.865 50.46 293.865 49.06C293.865 47.62 293.225 46.56 291.945 45.88C290.665 45.16 288.685 44.46 286.005 43.78C283.565 43.14 281.565 42.5 280.005 41.86C278.485 41.18 277.165 40.2 276.045 38.92C274.965 37.6 274.425 35.88 274.425 33.76C274.425 32.08 274.925 30.54 275.925 29.14C276.925 27.74 278.345 26.64 280.185 25.84C282.025 25 284.125 24.58 286.485 24.58C290.125 24.58 293.065 25.5 295.305 27.34C297.545 29.18 298.745 31.7 298.905 34.9H293.445C293.325 33.18 292.625 31.8 291.345 30.76C290.105 29.72 288.425 29.2 286.305 29.2C284.345 29.2 282.785 29.62 281.625 30.46C280.465 31.3 279.885 32.4 279.885 33.76C279.885 34.84 280.225 35.74 280.905 36.46C281.625 37.14 282.505 37.7 283.545 38.14C284.625 38.54 286.105 39 287.985 39.52C290.345 40.16 292.265 40.8 293.745 41.44C295.225 42.04 296.485 42.96 297.525 44.2C298.605 45.44 299.165 47.06 299.205 49.06C299.205 50.86 298.705 52.48 297.705 53.92C296.705 55.36 295.285 56.5 293.445 57.34C291.645 58.14 289.565 58.54 287.205 58.54ZM318.553 58.54C316.033 58.54 313.773 58.12 311.773 57.28C309.773 56.4 308.193 55.2 307.033 53.68C305.873 52.12 305.233 50.34 305.113 48.34H310.753C310.913 49.98 311.673 51.32 313.033 52.36C314.433 53.4 316.253 53.92 318.493 53.92C320.573 53.92 322.213 53.46 323.413 52.54C324.613 51.62 325.213 50.46 325.213 49.06C325.213 47.62 324.573 46.56 323.293 45.88C322.013 45.16 320.033 44.46 317.353 43.78C314.913 43.14 312.913 42.5 311.353 41.86C309.833 41.18 308.513 40.2 307.393 38.92C306.313 37.6 305.773 35.88 305.773 33.76C305.773 32.08 306.273 30.54 307.273 29.14C308.273 27.74 309.693 26.64 311.533 25.84C313.373 25 315.473 24.58 317.833 24.58C321.473 24.58 324.413 25.5 326.653 27.34C328.893 29.18 330.093 31.7 330.253 34.9H324.793C324.673 33.18 323.973 31.8 322.693 30.76C321.453 29.72 319.773 29.2 317.653 29.2C315.693 29.2 314.133 29.62 312.973 30.46C311.813 31.3 311.233 32.4 311.233 33.76C311.233 34.84 311.573 35.74 312.253 36.46C312.973 37.14 313.853 37.7 314.893 38.14C315.973 38.54 317.453 39 319.333 39.52C321.693 40.16 323.613 40.8 325.093 41.44C326.573 42.04 327.833 42.96 328.873 44.2C329.953 45.44 330.513 47.06 330.553 49.06C330.553 50.86 330.053 52.48 329.053 53.92C328.053 55.36 326.633 56.5 324.793 57.34C322.993 58.14 320.913 58.54 318.553 58.54Z" fill="white"/>
</g>
<defs>
<clipPath id="clip0_150801_199">
<rect width="360" height="76" fill="white"/>
</clipPath>
</defs>
</svg>
